<svg width="449" height="75" viewBox="0 0 449 75" fill="none" xmlns="http://www.w3.org/2000/svg">
<path d="M409.515 31.4839H412.243C414.447 31.4839 415.392 30.1196 415.392 28.7553C415.392 27.496 414.447 26.2366 412.243 26.2366H409.515C407.73 26.2366 406.891 27.0762 406.891 28.8603C406.891 30.6444 407.73 31.4839 409.515 31.4839ZM423.682 42.1885C425.781 43.5528 428.09 44.0775 430.609 44.0775C434.807 44.0775 438.585 43.133 441.418 41.9786C443.517 41.139 444.462 41.8736 444.777 43.8676L448.135 67.0608C448.555 69.6844 447.82 71.0487 445.826 71.7834C440.579 73.6724 435.856 74.512 431.238 74.512C414.762 74.512 409.829 64.9618 409.515 48.1704C409.515 46.9111 408.885 46.2814 407.521 46.2814C406.261 46.2814 405.736 46.9111 405.736 48.1704L406.786 70.3141C406.891 72.413 405.841 73.4625 403.742 73.4625H380.654C378.555 73.4625 377.506 72.413 377.506 70.3141V3.1484C377.506 1.04946 378.555 0 380.654 0H412.243C432.603 0 445.301 6.29678 445.301 20.4646C445.301 32.9532 438.375 37.3609 424.312 39.4599C423.263 39.5648 422.843 39.7747 422.633 40.4044C422.423 41.0341 422.738 41.5588 423.682 42.1885Z" fill="white"/>
<path d="M338.904 70.3141L338.17 60.3442C338.065 58.2453 336.91 57.1958 334.811 57.1958H333.972C331.873 57.1958 330.718 58.2453 330.613 60.3442L329.879 70.3141C329.774 72.413 328.619 73.4625 326.521 73.4625H299.129C297.031 73.4625 296.191 72.518 296.611 70.4191L310.779 3.04345C311.198 0.944518 312.458 0 314.557 0H354.226C356.325 0 357.585 0.944518 358.004 3.04345L372.172 70.4191C372.592 72.518 371.752 73.4625 369.654 73.4625H342.262C340.164 73.4625 339.009 72.413 338.904 70.3141ZM336.91 43.9726L336.071 32.0087C335.966 30.9592 335.441 30.4345 334.392 30.4345C333.342 30.4345 332.817 30.9592 332.712 32.0087L331.873 43.9726C331.768 45.7566 332.502 46.7012 334.392 46.7012C336.176 46.7012 337.015 45.7566 336.91 43.9726Z" fill="white"/>
<path d="M258.904 70.3141L258.17 60.3442C258.065 58.2453 256.91 57.1958 254.811 57.1958H253.972C251.873 57.1958 250.718 58.2453 250.613 60.3442L249.879 70.3141C249.774 72.413 248.619 73.4625 246.521 73.4625H219.13C217.031 73.4625 216.191 72.518 216.611 70.4191L230.779 3.04345C231.198 0.944518 232.458 0 234.557 0H274.226C276.325 0 277.585 0.944518 278.004 3.04345L292.172 70.4191C292.592 72.518 291.752 73.4625 289.654 73.4625H262.263C260.164 73.4625 259.009 72.413 258.904 70.3141ZM256.91 43.9726L256.071 32.0087C255.966 30.9592 255.441 30.4345 254.392 30.4345C253.342 30.4345 252.817 30.9592 252.712 32.0087L251.873 43.9726C251.768 45.7566 252.502 46.7012 254.392 46.7012C256.176 46.7012 257.015 45.7566 256.91 43.9726Z" fill="white"/>
<path d="M156.654 0H209.442C211.331 0 212.486 0.839573 212.486 2.41377C212.486 3.88302 211.646 5.66711 210.912 6.82152L193.805 32.7433C192.966 34.0026 192.546 35.4719 192.861 36.9411C193.176 38.3054 194.33 38.8302 195.904 38.8302H209.442C211.541 38.8302 212.591 39.8796 212.591 41.9786V70.3141C212.591 72.413 211.541 73.4625 209.442 73.4625H156.654C154.765 73.4625 153.611 72.6229 153.611 71.0487C153.611 69.1597 154.45 67.7954 155.185 66.641L172.291 40.7192C173.026 39.5648 173.551 37.9906 173.236 36.5214C172.921 35.1571 171.767 34.6323 170.192 34.6323H156.654C154.555 34.6323 153.506 33.5829 153.506 31.4839V3.1484C153.506 1.04946 154.555 0 156.654 0Z" fill="white"/>
<path d="M115.904 70.3141L115.17 60.3442C115.065 58.2453 113.91 57.1958 111.811 57.1958H110.972C108.873 57.1958 107.718 58.2453 107.613 60.3442L106.879 70.3141C106.774 72.413 105.619 73.4625 103.521 73.4625H76.1295C74.0306 73.4625 73.191 72.518 73.6108 70.4191L87.7786 3.04345C88.1984 0.944518 89.4577 0 91.5566 0H131.226C133.325 0 134.585 0.944518 135.004 3.04345L149.172 70.4191C149.592 72.518 148.752 73.4625 146.654 73.4625H119.262C117.164 73.4625 116.009 72.413 115.904 70.3141ZM113.91 43.9726L113.071 32.0087C112.966 30.9592 112.441 30.4345 111.392 30.4345C110.342 30.4345 109.817 30.9592 109.712 32.0087L108.873 43.9726C108.768 45.7566 109.502 46.7012 111.392 46.7012C113.176 46.7012 114.015 45.7566 113.91 43.9726Z" fill="white"/>
<path d="M3.14839 0H38.9351C59.2947 0 70.9438 6.40173 70.9438 20.9893C70.9438 26.9712 68.2152 31.6938 62.8629 34.8422C61.8134 35.4719 61.6035 35.9966 61.6035 36.6263C61.6035 37.3609 61.8134 37.8857 62.9678 38.5153C68.9498 41.7687 71.9932 46.3863 71.9932 52.4732C71.9932 67.0608 59.2947 73.4625 38.9351 73.4625H3.14839C1.04946 73.4625 0 72.413 0 70.3141V3.1484C0 1.04946 1.04946 0 3.14839 0ZM32.0087 31.4839H37.8857C40.0895 31.4839 41.034 30.1196 41.034 28.7553C41.034 27.496 40.0895 26.2366 37.8857 26.2366H32.0087C30.2246 26.2366 29.385 27.0762 29.385 28.8603C29.385 30.6444 30.2246 31.4839 32.0087 31.4839ZM32.0087 47.2259H38.9351C41.139 47.2259 42.0835 45.9665 42.0835 44.7072C42.0835 43.3429 41.139 41.9786 38.9351 41.9786H32.0087C30.2246 41.9786 29.385 42.8181 29.385 44.6022C29.385 46.3863 30.2246 47.2259 32.0087 47.2259Z" fill="white"/>
</svg>
